<svg width="12" height="10" viewBox="0 0 12 10" fill="none" xmlns="http://www.w3.org/2000/svg">
<path d="M11.3174 0.116211V1.70312C10.708 1.86393 10.2425 2.09245 9.9209 2.38867C9.60775 2.6849 9.35384 3.06576 9.15918 3.53125C8.97298 3.98828 8.87988 4.54688 8.87988 5.20703C9.65853 5.20703 10.234 5.43132 10.6064 5.87988C10.9873 6.31999 11.1777 6.78971 11.1777 7.28906C11.1777 7.88151 10.9704 8.38086 10.5557 8.78711C10.141 9.1849 9.65853 9.38379 9.1084 9.38379C8.389 9.38379 7.77116 9.0791 7.25488 8.46973C6.74707 7.85189 6.49316 7.00977 6.49316 5.94336C6.49316 5.00391 6.69629 4.1237 7.10254 3.30273C7.50879 2.48177 8.05892 1.7793 8.75293 1.19531C9.4554 0.611328 10.3102 0.251628 11.3174 0.116211ZM5.10938 0.116211V1.70312C4.5 1.86393 4.03451 2.09245 3.71289 2.38867C3.39974 2.6849 3.14583 3.06576 2.95117 3.53125C2.76497 3.98828 2.67188 4.54688 2.67188 5.20703C3.45898 5.20703 4.03874 5.43132 4.41113 5.87988C4.78353 6.31999 4.96973 6.78971 4.96973 7.28906C4.96973 7.88151 4.76237 8.38086 4.34766 8.78711C3.93294 9.1849 3.45052 9.38379 2.90039 9.38379C2.18945 9.38379 1.57585 9.0791 1.05957 8.46973C0.543294 7.85189 0.285156 7.00977 0.285156 5.94336C0.285156 5.00391 0.488281 4.1237 0.894531 3.30273C1.30078 2.48177 1.85091 1.7793 2.54492 1.19531C3.2474 0.611328 4.10221 0.251628 5.10938 0.116211Z" fill="black"/>
</svg>
