<svg width="320" height="180" viewBox="0 0 320 180" fill="none" xmlns="http://www.w3.org/2000/svg">
<path d="M0 0H320V180H0V0Z" fill="#E5E5E5"/>
<g opacity="0.08">
<path d="M144.724 80.847V83.4399H137.594V93.5121C140.897 93.4747 143.278 93.3251 145.946 92.8389L146.27 95.4068C143.153 96.0052 140.411 96.1298 136.222 96.1049H134.378V80.847H144.724ZM152.478 78.8525V101.59H149.311V89.2987H143.602V86.7058H149.311V78.8525H152.478ZM175.627 96.3043V98.8972H154.859V96.3043H163.61V92.1159H157.053V80.2985H160.244V83.8138H170.142V80.2985H173.308V92.1159H166.776V96.3043H175.627ZM160.244 89.5729H170.142V86.3568H160.244V89.5729ZM194.313 78.8525V87.2793H197.654V89.8721H194.313V101.59H191.122V78.8525H194.313ZM187.956 80.9468V83.5147H180.476V93.4622C183.767 93.4248 186.485 93.2752 189.501 92.7392L189.85 95.4068C186.335 96.0052 183.244 96.1049 179.23 96.08H177.31V80.9468H187.956Z" fill="black"/>
<path d="M204.44 89.6451H201.95L205.809 78.5133H208.776L212.62 89.6451H210.145L209.314 87.0774H205.286L204.44 89.6451ZM205.87 85.2785H208.73L207.331 81.0195H207.254L205.87 85.2785ZM215.872 78.5133V89.6451H213.566V78.5133H215.872Z" fill="black"/>
<path d="M114.728 77.5437C112.352 77.5436 110.029 78.248 108.054 79.5679C106.078 80.8877 104.539 82.7638 103.629 84.9587C102.72 87.1536 102.482 89.5689 102.946 91.8991C103.409 94.2293 104.553 96.3697 106.233 98.0497C107.913 99.7297 110.053 100.874 112.383 101.337C114.714 101.801 117.129 101.563 119.324 100.654C121.519 99.7446 123.395 98.205 124.715 96.2296C126.035 94.2542 126.739 91.9317 126.739 89.5559C126.739 87.9785 126.429 86.4165 125.825 84.9591C125.221 83.5017 124.337 82.1775 123.221 81.062C122.106 79.9466 120.782 79.0618 119.324 78.4581C117.867 77.8544 116.305 77.5437 114.728 77.5437ZM114.728 99.4516C112.771 99.4515 110.857 98.8711 109.23 97.7837C107.603 96.6964 106.335 95.151 105.586 93.3429C104.837 91.5348 104.641 89.5453 105.023 87.6258C105.405 85.7064 106.347 83.9433 107.731 82.5595C109.115 81.1756 110.878 80.2332 112.797 79.8514C114.717 79.4696 116.706 79.6655 118.515 80.4144C120.323 81.1633 121.868 82.4315 122.955 84.0586C124.043 85.6858 124.623 87.5989 124.623 89.5559C124.623 90.8554 124.367 92.1422 123.87 93.3428C123.373 94.5434 122.644 95.6343 121.725 96.5532C120.806 97.4721 119.715 98.201 118.514 98.6983C117.314 99.1956 116.027 99.4516 114.728 99.4516Z" fill="black"/>
<path d="M114.795 80.1699C112.938 80.1699 111.124 80.7204 109.58 81.7517C108.037 82.7831 106.834 84.2489 106.123 85.964C105.413 87.679 105.227 89.5662 105.589 91.3869C105.951 93.2075 106.845 94.8799 108.158 96.1926C109.47 97.5052 111.143 98.3991 112.963 98.7613C114.784 99.1234 116.671 98.9376 118.386 98.2272C120.101 97.5168 121.567 96.3138 122.599 94.7703C123.63 93.2268 124.18 91.4121 124.18 89.5558C124.18 87.0665 123.191 84.6793 121.431 82.9191C119.671 81.159 117.284 80.1701 114.795 80.1699ZM119.199 92.5979C119.223 92.8771 119.138 93.1549 118.96 93.3719C118.783 93.5889 118.528 93.7278 118.249 93.7588H111.342C111.064 93.7266 110.809 93.5874 110.632 93.3707C110.454 93.154 110.369 92.8768 110.392 92.5979V89.2829C110.388 89.1022 110.423 88.9229 110.495 88.7571C110.567 88.5913 110.674 88.443 110.808 88.3224L114.041 85.6231C114.254 85.4487 114.52 85.3534 114.794 85.3534C115.069 85.3534 115.335 85.4487 115.547 85.6231L118.781 88.3229C118.916 88.4434 119.023 88.5916 119.095 88.7573C119.167 88.923 119.202 89.1023 119.199 89.2829V92.5979ZM118.563 86.3516C118.365 86.3516 118.172 86.293 118.008 86.1833C117.843 86.0735 117.715 85.9175 117.64 85.735C117.564 85.5524 117.544 85.3516 117.583 85.1578C117.621 84.9641 117.717 84.7861 117.856 84.6464C117.996 84.5067 118.174 84.4115 118.368 84.373C118.562 84.3344 118.762 84.3542 118.945 84.4298C119.127 84.5054 119.283 84.6335 119.393 84.7977C119.503 84.962 119.562 85.1551 119.562 85.3527C119.561 85.6176 119.456 85.8716 119.269 86.0589C119.082 86.2462 118.828 86.3515 118.563 86.3516Z" fill="black"/>
</g>
</svg>
